<?xml version="1.0" standalone="no"?>
<!DOCTYPE svg PUBLIC "-//W3C//DTD SVG 20010904//EN"
 "http://www.w3.org/TR/2001/REC-SVG-20010904/DTD/svg10.dtd">
<svg version="1.0" xmlns="http://www.w3.org/2000/svg"
 width="512.000000pt" height="512.000000pt" viewBox="0 0 512.000000 512.000000"
 preserveAspectRatio="xMidYMid meet">

<g transform="translate(0.000000,512.000000) scale(0.100000,-0.100000)"
fill="#000000" stroke="none">
<path d="M0 2560 l0 -2560 2560 0 2560 0 0 2560 0 2560 -2560 0 -2560 0 0
-2560z m4820 0 l0 -2260 -2260 0 -2260 0 0 2260 0 2260 2260 0 2260 0 0 -2260z"/>
<path d="M1726 3292 c-2 -4 -146 -379 -319 -832 -174 -454 -318 -833 -322
-842 -7 -17 5 -18 163 -18 l170 0 30 78 c16 42 51 137 77 210 l48 132 301 -2
301 -3 76 -205 76 -205 172 -3 171 -2 -13 32 c-7 18 -152 401 -322 850 l-310
818 -147 0 c-81 0 -149 -4 -152 -8z m268 -703 l114 -324 -119 -3 c-65 -1 -172
-1 -237 0 l-119 3 120 328 c66 180 122 326 124 324 2 -2 54 -150 117 -328z"/>
<path d="M3230 2864 c-282 -60 -468 -263 -510 -555 -13 -89 -6 -180 22 -274
31 -108 75 -182 158 -266 130 -130 279 -189 479 -189 203 0 367 65 487 192 39
41 99 127 92 132 -2 2 -64 20 -138 40 -128 36 -135 37 -145 19 -17 -31 -84
-92 -123 -112 -52 -27 -148 -44 -203 -38 -140 17 -268 141 -286 277 l-6 40
487 0 486 0 0 98 c-1 184 -51 326 -158 442 -152 165 -412 244 -642 194z m264
-242 c96 -33 183 -141 201 -249 l7 -43 -326 0 c-263 0 -326 3 -326 13 0 7 7
37 16 67 56 188 235 277 428 212z"/>
</g>
</svg>
