<?xml version="1.0" standalone="no"?>
<!DOCTYPE svg PUBLIC "-//W3C//DTD SVG 20010904//EN"
 "http://www.w3.org/TR/2001/REC-SVG-20010904/DTD/svg10.dtd">
<svg version="1.0" xmlns="http://www.w3.org/2000/svg"
 width="512.000000pt" height="512.000000pt" viewBox="0 0 512.000000 512.000000"
 preserveAspectRatio="xMidYMid meet">

<g transform="translate(0.000000,512.000000) scale(0.100000,-0.100000)"
fill="#000000" stroke="none">
<path d="M0 2560 l0 -2560 2560 0 2560 0 0 2560 0 2560 -2560 0 -2560 0 0
-2560z m4820 0 l0 -2260 -2260 0 -2260 0 0 2260 0 2260 2260 0 2260 0 0 -2260z"/>
<path d="M3220 3190 l0 -160 160 0 160 0 0 160 0 160 -160 0 -160 0 0 -160z"/>
<path d="M1802 2457 c-177 -464 -322 -846 -322 -850 0 -4 75 -7 168 -7 l167 0
76 208 77 207 300 3 300 2 22 -57 c12 -32 47 -127 78 -210 l57 -153 167 0 c93
0 168 4 168 8 0 4 -144 386 -319 847 l-320 840 -149 3 -148 3 -322 -844z m698
-189 c0 -4 -106 -8 -235 -8 -129 0 -235 2 -235 4 0 3 209 575 232 636 8 22 26
-20 124 -299 63 -178 114 -328 114 -333z"/>
<path d="M3220 2230 l0 -630 160 0 160 0 0 630 0 630 -160 0 -160 0 0 -630z"/>
</g>
</svg>
