<?xml version="1.0" standalone="no"?>
<!DOCTYPE svg PUBLIC "-//W3C//DTD SVG 20010904//EN"
 "http://www.w3.org/TR/2001/REC-SVG-20010904/DTD/svg10.dtd">
<svg version="1.0" xmlns="http://www.w3.org/2000/svg"
 width="512.000000pt" height="512.000000pt" viewBox="0 0 512.000000 512.000000"
 preserveAspectRatio="xMidYMid meet">

<g transform="translate(0.000000,512.000000) scale(0.100000,-0.100000)"
fill="#000000" stroke="none">
<path d="M0 2560 l0 -2560 2560 0 2560 0 0 2560 0 2560 -2560 0 -2560 0 0
-2560z m4820 0 l0 -2260 -2260 0 -2260 0 0 2260 0 2260 2260 0 2260 0 0 -2260z"/>
<path d="M1410 2450 l0 -850 165 0 165 0 0 284 0 284 253 4 c228 4 258 7 311
26 320 118 459 496 298 807 -44 84 -154 198 -228 237 -102 55 -133 58 -566 58
l-398 0 0 -850z m788 541 c89 -46 136 -134 136 -256 -1 -61 -6 -92 -23 -132
-28 -63 -85 -118 -138 -132 -21 -6 -127 -11 -235 -11 l-198 0 0 275 0 275 210
0 c188 0 215 -2 248 -19z"/>
<path d="M3173 2866 c-139 -36 -256 -120 -306 -218 -56 -111 -58 -225 -6 -317
54 -94 157 -150 391 -212 82 -21 168 -47 191 -57 51 -23 96 -67 99 -96 5 -69
-13 -100 -76 -131 -60 -30 -167 -34 -261 -10 -69 18 -187 72 -259 118 -27 17
-51 27 -53 22 -2 -6 -28 -50 -58 -100 l-54 -90 31 -27 c50 -43 175 -104 273
-134 109 -32 293 -43 401 -25 104 18 207 65 262 120 136 132 143 351 15 472
-81 78 -174 119 -373 168 -203 50 -265 90 -265 171 0 81 71 129 191 130 101 0
216 -40 336 -117 15 -9 29 -15 31 -13 2 3 32 46 65 97 l62 92 -47 36 c-58 45
-149 88 -228 110 -81 22 -294 28 -362 11z"/>
</g>
</svg>
