<?xml version="1.0" standalone="no"?>
<!DOCTYPE svg PUBLIC "-//W3C//DTD SVG 20010904//EN"
 "http://www.w3.org/TR/2001/REC-SVG-20010904/DTD/svg10.dtd">
<svg version="1.0" xmlns="http://www.w3.org/2000/svg"
 width="499.000000pt" height="500.000000pt" viewBox="0 0 499.000000 500.000000"
 preserveAspectRatio="xMidYMid meet">

<g transform="translate(0.000000,500.000000) scale(0.100000,-0.100000)"
fill="#662483" stroke="none">
<path d="M2373 3340 c-342 -47 -608 -274 -710 -604 -29 -94 -41 -269 -25 -354
l10 -54 -36 -31 c-205 -180 -267 -281 -213 -348 45 -57 77 -64 298 -64 l202 0
28 -26 c88 -80 220 -147 358 -180 75 -18 110 -20 215 -16 71 3 153 12 190 22
294 79 524 314 601 613 10 41 19 97 19 124 0 45 4 53 37 81 164 142 181 161
225 256 56 121 48 207 -24 257 -40 28 -46 29 -157 28 -78 0 -137 -6 -180 -18
l-63 -17 -36 42 c-178 208 -478 325 -739 289z m291 -84 c53 -14 125 -40 160
-59 258 -140 301 -275 120 -375 -33 -18 -48 -30 -35 -26 112 31 217 33 267 6
54 -29 92 -282 64 -434 -43 -242 -303 -334 -710 -253 -243 49 -301 43 -387
-36 -35 -32 -92 -129 -107 -181 -10 -32 -41 -19 -105 45 -93 91 -181 228 -181
279 0 54 72 171 150 246 32 31 33 33 10 27 -14 -4 -61 -31 -104 -60 -44 -29
-85 -51 -92 -48 -19 7 -28 84 -20 166 16 169 79 327 179 443 130 152 265 230
482 277 65 14 218 6 309 -17z"/>
<path d="M2262 3201 c-19 -11 -11 -45 11 -49 9 -2 20 4 23 13 9 21 -16 47 -34
36z"/>
<path d="M2641 3186 c-12 -14 -5 -26 16 -26 15 0 18 26 4 34 -5 3 -14 0 -20
-8z"/>
<path d="M2425 3061 c-8 -15 3 -31 21 -31 9 0 14 7 12 17 -4 20 -24 28 -33 14z"/>
</g>
</svg>
